<?xml version="1.0" encoding="UTF-8" standalone="no"?>
<!DOCTYPE svg PUBLIC "-//W3C//DTD SVG 1.1//EN" "http://www.w3.org/Graphics/SVG/1.1/DTD/svg11.dtd">
<svg width="222px" height="222px" version="1.1" xmlns="http://www.w3.org/2000/svg" xmlns:xlink="http://www.w3.org/1999/xlink" xml:space="preserve" xmlns:serif="http://www.serif.com/" style="fill-rule:evenodd;clip-rule:evenodd;stroke-linejoin:round;stroke-miterlimit:2;">
    <g id="Calque_5" transform="matrix(1,0,0,1,-1.481,-0.031)">
        <path d="M112.005,0.031C50.964,0.031 1.481,49.515 1.481,110.556C1.481,171.597 50.965,221.081 112.006,221.081C173.047,221.081 222.531,171.597 222.531,110.556C222.531,49.515 173.046,0.031 112.005,0.031ZM112.005,209.388C57.508,209.388 13.172,165.052 13.172,110.555C13.172,56.058 57.509,11.723 112.005,11.723C166.501,11.723 210.838,56.059 210.838,110.556C210.838,165.053 166.502,209.389 112.005,209.389L112.005,209.388Z" style="fill:white;fill-rule:nonzero;"/>
        <path d="M81.733,100.628C81.733,100.628 71.669,83.254 19.003,91.949C17.806,97.966 17.173,104.187 17.173,110.556C17.173,112.235 17.218,113.904 17.304,115.563C23.132,115.664 28.155,114.483 31.645,111.441C48.961,96.348 81.733,100.628 81.733,100.628Z" style="fill:white;fill-rule:nonzero;"/>
        <path d="M92.507,84.289C92.507,84.289 95.51,38.237 57.729,32.789C45.478,41.356 35.346,52.741 28.273,66.008C77.326,50.921 89.882,76.148 92.507,84.289Z" style="fill:white;fill-rule:nonzero;"/>
        <path d="M125.851,16.733C121.331,16.072 116.709,15.724 112.006,15.724C107.052,15.724 102.187,16.105 97.437,16.838C106.506,38.942 111.622,71.124 111.622,71.124C111.622,71.124 116.755,38.84 125.851,16.734L125.851,16.733Z" style="fill:white;fill-rule:nonzero;"/>
        <path d="M195.888,66.292C188.785,52.86 178.553,41.341 166.159,32.703C127.703,37.72 130.737,84.288 130.737,84.288C133.378,76.096 146.073,50.604 195.888,66.291L195.888,66.292Z" style="fill:white;fill-rule:nonzero;"/>
        <path d="M205.033,92.078C151.67,83.075 141.511,100.628 141.511,100.628C141.511,100.628 174.283,96.348 191.599,111.441C195.241,114.615 200.554,115.76 206.708,115.539C206.793,113.889 206.838,112.228 206.838,110.556C206.838,104.233 206.213,98.056 205.033,92.078Z" style="fill:white;fill-rule:nonzero;"/>
        <path d="M191.988,159.481C189.101,151.816 181.455,146.487 172.636,147.163C163.267,147.882 155.681,155.589 155.083,164.966C154.773,169.834 156.307,174.323 159.028,177.85C154.111,178.781 149.869,181.597 147.065,185.519C146.329,180.977 142.4,177.505 137.65,177.505C135.501,177.505 133.525,178.223 131.93,179.421C129.819,177.69 127.517,174.989 125.229,171.557C119.196,162.508 116.583,148.731 115.586,140.837C115.333,138.838 113.636,137.347 111.622,137.347C109.608,137.347 107.911,138.838 107.658,140.837C106.661,148.731 103.357,162.508 97.323,171.557C89.627,183.101 84.24,184.256 81.033,171.557L80.974,171.571C78.277,162.019 69.517,155.011 59.101,155.011C49.383,155.011 41.126,161.12 37.874,169.696C41.182,173.837 44.829,177.695 48.775,181.227C60.622,170.991 70.643,184.896 70.643,184.896C62.122,180.986 56.29,182.046 52.457,184.358C63.84,193.554 77.391,200.17 92.226,203.318C98.417,196.203 104.377,182.973 104.377,182.973C104.377,187.456 101.797,197.875 97.976,204.355C102.554,205.034 107.238,205.39 112.005,205.39C114.642,205.39 117.253,205.277 119.835,205.066C113.578,194.209 113.227,177.678 113.227,167.452C113.227,167.452 119.498,195.351 127.144,204.181C152.684,200.083 174.816,185.791 189.231,165.606C186.584,163.083 180.784,159.635 172.872,166.811C172.872,166.811 176.354,153.051 191.987,159.482L191.988,159.481Z" style="fill:white;fill-rule:nonzero;"/>
        <path d="M111.622,80.447C110.509,80.447 109.396,80.898 108.582,81.799C87.1,105.588 81.831,137.527 88.008,141.773C94.466,146.213 102.54,126.841 111.219,126.64L112.027,126.64C120.705,126.842 128.779,146.214 135.238,141.773C141.415,137.526 136.146,105.587 114.663,81.799C113.849,80.897 112.736,80.446 111.623,80.447L111.622,80.447ZM117.992,106.998C117.992,110.516 115.14,113.368 111.622,113.368C108.104,113.368 105.252,110.516 105.252,106.998C105.252,103.48 108.104,100.628 111.622,100.628C115.14,100.628 117.992,103.48 117.992,106.998Z" style="fill:white;fill-rule:nonzero;"/>
    </g>
</svg>
